<mxfile host="Electron" agent="Mozilla/5.0 (X11; Linux x86_64) AppleWebKit/537.36 (KHTML, like Gecko) draw.io/26.0.16 Chrome/132.0.6834.196 Electron/34.2.0 Safari/537.36" version="26.0.16">
  <diagram id="R2lEEEUBdFMjLlhIrx00" name="Page-1">
    <mxGraphModel dx="1248" dy="514" grid="1" gridSize="10" guides="1" tooltips="1" connect="1" arrows="1" fold="1" page="1" pageScale="1" pageWidth="850" pageHeight="1100" background="none" math="0" shadow="0" extFonts="Permanent Marker^https://fonts.googleapis.com/css?family=Permanent+Marker">
      <root>
        <mxCell id="0" />
        <mxCell id="1" parent="0" />
        <mxCell id="0vSEFzrK-hrlWtnIKRlC-8" style="edgeStyle=orthogonalEdgeStyle;rounded=1;orthogonalLoop=1;jettySize=auto;html=1;entryX=0;entryY=0.5;entryDx=0;entryDy=0;endArrow=none;startFill=1;labelBackgroundColor=none;strokeColor=#A8201A;fontColor=default;startArrow=classic;" edge="1" parent="1" source="0vSEFzrK-hrlWtnIKRlC-5" target="0vSEFzrK-hrlWtnIKRlC-7">
          <mxGeometry relative="1" as="geometry" />
        </mxCell>
        <mxCell id="0vSEFzrK-hrlWtnIKRlC-13" value="1:1" style="edgeLabel;html=1;align=center;verticalAlign=middle;resizable=0;points=[];labelBackgroundColor=default;fontColor=#143642;rounded=1;" vertex="1" connectable="0" parent="0vSEFzrK-hrlWtnIKRlC-8">
          <mxGeometry x="0.4529" relative="1" as="geometry">
            <mxPoint x="-26" as="offset" />
          </mxGeometry>
        </mxCell>
        <mxCell id="0vSEFzrK-hrlWtnIKRlC-5" value="Seccion" style="whiteSpace=wrap;html=1;align=center;labelBackgroundColor=none;fillColor=#FAE5C7;strokeColor=#0F8B8D;fontColor=#143642;rounded=1;" vertex="1" parent="1">
          <mxGeometry x="-650" y="460" width="100" height="40" as="geometry" />
        </mxCell>
        <mxCell id="0vSEFzrK-hrlWtnIKRlC-6" value="Libro" style="whiteSpace=wrap;html=1;align=center;labelBackgroundColor=none;fillColor=#FAE5C7;strokeColor=#0F8B8D;fontColor=#143642;rounded=1;" vertex="1" parent="1">
          <mxGeometry x="-270" y="460" width="100" height="40" as="geometry" />
        </mxCell>
        <mxCell id="0vSEFzrK-hrlWtnIKRlC-9" style="edgeStyle=orthogonalEdgeStyle;rounded=1;orthogonalLoop=1;jettySize=auto;html=1;entryX=0;entryY=0.5;entryDx=0;entryDy=0;labelBackgroundColor=none;strokeColor=#A8201A;fontColor=default;endArrow=none;startFill=0;" edge="1" parent="1" source="0vSEFzrK-hrlWtnIKRlC-7" target="0vSEFzrK-hrlWtnIKRlC-6">
          <mxGeometry relative="1" as="geometry" />
        </mxCell>
        <mxCell id="0vSEFzrK-hrlWtnIKRlC-10" value="1:N" style="edgeLabel;html=1;align=center;verticalAlign=middle;resizable=0;points=[];labelBackgroundColor=default;fontColor=#143642;rounded=1;" vertex="1" connectable="0" parent="0vSEFzrK-hrlWtnIKRlC-9">
          <mxGeometry x="-0.4857" y="3" relative="1" as="geometry">
            <mxPoint x="12" y="3" as="offset" />
          </mxGeometry>
        </mxCell>
        <mxCell id="0vSEFzrK-hrlWtnIKRlC-7" value="Posee" style="shape=rhombus;perimeter=rhombusPerimeter;whiteSpace=wrap;html=1;align=center;labelBackgroundColor=none;fillColor=#FAE5C7;strokeColor=#0F8B8D;fontColor=#143642;rounded=1;" vertex="1" parent="1">
          <mxGeometry x="-460" y="450" width="120" height="60" as="geometry" />
        </mxCell>
        <mxCell id="0vSEFzrK-hrlWtnIKRlC-15" style="edgeStyle=orthogonalEdgeStyle;rounded=1;orthogonalLoop=1;jettySize=auto;html=1;entryX=0.5;entryY=0;entryDx=0;entryDy=0;endArrow=none;startFill=0;labelBackgroundColor=none;strokeColor=#A8201A;fontColor=default;" edge="1" parent="1" source="0vSEFzrK-hrlWtnIKRlC-14" target="0vSEFzrK-hrlWtnIKRlC-6">
          <mxGeometry relative="1" as="geometry" />
        </mxCell>
        <mxCell id="0vSEFzrK-hrlWtnIKRlC-14" value="titulo" style="ellipse;whiteSpace=wrap;html=1;align=center;labelBackgroundColor=none;fillColor=#FAE5C7;strokeColor=#0F8B8D;fontColor=#143642;rounded=1;" vertex="1" parent="1">
          <mxGeometry x="-330" y="340" width="100" height="40" as="geometry" />
        </mxCell>
        <mxCell id="0vSEFzrK-hrlWtnIKRlC-17" style="edgeStyle=orthogonalEdgeStyle;rounded=1;orthogonalLoop=1;jettySize=auto;html=1;endArrow=none;startFill=0;exitX=0.5;exitY=1;exitDx=0;exitDy=0;labelBackgroundColor=none;strokeColor=#A8201A;fontColor=default;" edge="1" parent="1" source="0vSEFzrK-hrlWtnIKRlC-19" target="0vSEFzrK-hrlWtnIKRlC-6">
          <mxGeometry relative="1" as="geometry">
            <mxPoint x="-160.00000000000023" y="390" as="sourcePoint" />
          </mxGeometry>
        </mxCell>
        <mxCell id="0vSEFzrK-hrlWtnIKRlC-27" style="edgeStyle=orthogonalEdgeStyle;rounded=1;orthogonalLoop=1;jettySize=auto;html=1;exitX=0.5;exitY=1;exitDx=0;exitDy=0;entryX=0.5;entryY=0;entryDx=0;entryDy=0;strokeColor=#A8201A;fontColor=#143642;fillColor=#FAE5C7;" edge="1" parent="1" source="0vSEFzrK-hrlWtnIKRlC-18" target="0vSEFzrK-hrlWtnIKRlC-5">
          <mxGeometry relative="1" as="geometry" />
        </mxCell>
        <mxCell id="0vSEFzrK-hrlWtnIKRlC-18" value="nombre" style="ellipse;whiteSpace=wrap;html=1;align=center;labelBackgroundColor=none;fillColor=#FAE5C7;strokeColor=#0F8B8D;fontColor=#143642;rounded=1;" vertex="1" parent="1">
          <mxGeometry x="-710" y="340" width="100" height="40" as="geometry" />
        </mxCell>
        <mxCell id="0vSEFzrK-hrlWtnIKRlC-19" value="anioPublicacio&lt;span style=&quot;background-color: transparent; color: light-dark(rgb(0, 0, 0), rgb(255, 255, 255));&quot;&gt;n&lt;/span&gt;" style="ellipse;whiteSpace=wrap;html=1;align=center;labelBackgroundColor=none;fillColor=#FAE5C7;strokeColor=#0F8B8D;fontColor=#143642;rounded=1;" vertex="1" parent="1">
          <mxGeometry x="-220" y="340" width="100" height="40" as="geometry" />
        </mxCell>
        <mxCell id="0vSEFzrK-hrlWtnIKRlC-34" style="edgeStyle=orthogonalEdgeStyle;rounded=1;orthogonalLoop=1;jettySize=auto;html=1;strokeColor=#A8201A;fontColor=#143642;fillColor=#FAE5C7;" edge="1" parent="1" source="0vSEFzrK-hrlWtnIKRlC-22">
          <mxGeometry relative="1" as="geometry">
            <mxPoint x="-220" y="460" as="targetPoint" />
            <Array as="points">
              <mxPoint x="-390" y="420" />
              <mxPoint x="-220" y="420" />
            </Array>
          </mxGeometry>
        </mxCell>
        <mxCell id="0vSEFzrK-hrlWtnIKRlC-22" value="idSeccion" style="ellipse;whiteSpace=wrap;html=1;align=center;dashed=1;labelBackgroundColor=none;fillColor=#FAE5C7;strokeColor=#0F8B8D;fontColor=#143642;rounded=1;" vertex="1" parent="1">
          <mxGeometry x="-440" y="340" width="100" height="40" as="geometry" />
        </mxCell>
        <mxCell id="0vSEFzrK-hrlWtnIKRlC-26" style="edgeStyle=orthogonalEdgeStyle;rounded=1;orthogonalLoop=1;jettySize=auto;html=1;entryX=0.5;entryY=0;entryDx=0;entryDy=0;strokeColor=#A8201A;fontColor=#143642;fillColor=#FAE5C7;endArrow=none;startFill=0;" edge="1" parent="1" source="0vSEFzrK-hrlWtnIKRlC-25" target="0vSEFzrK-hrlWtnIKRlC-5">
          <mxGeometry relative="1" as="geometry" />
        </mxCell>
        <mxCell id="0vSEFzrK-hrlWtnIKRlC-25" value="id" style="ellipse;whiteSpace=wrap;html=1;align=center;fontStyle=4;rounded=1;labelBackgroundColor=none;fillColor=#FAE5C7;strokeColor=#0F8B8D;fontColor=#143642;" vertex="1" parent="1">
          <mxGeometry x="-590" y="340" width="100" height="40" as="geometry" />
        </mxCell>
        <mxCell id="0vSEFzrK-hrlWtnIKRlC-30" value="1:N" style="text;html=1;align=center;verticalAlign=middle;resizable=0;points=[];autosize=1;strokeColor=none;fillColor=none;fontColor=#143642;" vertex="1" parent="1">
          <mxGeometry x="-420" y="408" width="40" height="30" as="geometry" />
        </mxCell>
        <mxCell id="0vSEFzrK-hrlWtnIKRlC-33" style="edgeStyle=orthogonalEdgeStyle;rounded=1;orthogonalLoop=1;jettySize=auto;html=1;entryX=0.5;entryY=0;entryDx=0;entryDy=0;strokeColor=#A8201A;fontColor=#143642;fillColor=#FAE5C7;" edge="1" parent="1" source="0vSEFzrK-hrlWtnIKRlC-32" target="0vSEFzrK-hrlWtnIKRlC-6">
          <mxGeometry relative="1" as="geometry">
            <Array as="points">
              <mxPoint x="-50" y="420" />
              <mxPoint x="-220" y="420" />
            </Array>
          </mxGeometry>
        </mxCell>
        <mxCell id="0vSEFzrK-hrlWtnIKRlC-32" value="id" style="ellipse;whiteSpace=wrap;html=1;align=center;fontStyle=4;rounded=1;strokeColor=#0F8B8D;fontColor=#143642;fillColor=#FAE5C7;" vertex="1" parent="1">
          <mxGeometry x="-110" y="340" width="100" height="40" as="geometry" />
        </mxCell>
      </root>
    </mxGraphModel>
  </diagram>
</mxfile>
